<svg width="111" height="111" viewBox="0 0 111 111" fill="none" xmlns="http://www.w3.org/2000/svg">
<rect y="55.3346" width="78.2549" height="78.2549" rx="12" transform="rotate(-45 0 55.3346)" fill="#318EFC"/>
<g clip-path="url(#clip0_407_2)">
<path d="M58.6738 74.2353H51.327C49.7991 74.2353 48.5564 72.9942 48.5564 71.4681V67.5233C48.5564 67.1679 48.8451 66.8795 49.2009 66.8795H55.4168C55.7726 66.8795 56.0613 67.1679 56.0613 67.5233C56.0613 67.8786 55.7726 68.167 55.4168 68.167H49.8455V71.4681C49.8455 72.2835 50.5098 72.9478 51.327 72.9478H58.6738C59.4902 72.9478 60.1554 72.2843 60.1554 71.4681V68.167H57.9958C57.64 68.167 57.3512 67.8786 57.3512 67.5233C57.3512 67.1679 57.64 66.8795 57.9958 66.8795H60.7999C61.1557 66.8795 61.4444 67.1679 61.4444 67.5233V71.4681C61.4444 72.9942 60.2018 74.2353 58.6738 74.2353Z" fill="white"/>
<path d="M55 77C52.9813 77 51.2265 75.7065 50.6335 73.7813C50.5734 73.5856 50.6095 73.3736 50.7306 73.2097C50.8518 73.0457 51.0443 72.9487 51.2488 72.9487H58.7495C58.954 72.9487 59.1465 73.0457 59.2677 73.2097C59.3888 73.3745 59.4249 73.5865 59.3648 73.7813C58.7718 75.7065 57.017 77 54.9983 77H55ZM52.256 74.2354C52.849 75.1443 53.8665 75.7125 55 75.7125C56.1335 75.7125 57.151 75.1443 57.744 74.2354H52.2552H52.256Z" fill="white"/>
<path d="M56.32 63.7793H53.68C53.3586 63.7793 53.087 63.5433 53.0415 63.2257L52.794 61.4859C52.3506 61.3494 51.9217 61.1718 51.5118 60.9555L50.105 62.0112C49.8481 62.2035 49.4888 62.1786 49.262 61.952L47.3954 60.0877C47.1685 59.8611 47.1427 59.5023 47.3361 59.2457L48.3931 57.8406C48.1766 57.4312 47.9987 57.0029 47.862 56.56L46.1201 56.3128C45.8021 56.2682 45.5658 55.9961 45.5658 55.6751V53.0383C45.5658 52.7182 45.8021 52.4461 46.1201 52.4006L47.862 52.1534C47.9987 51.7105 48.1766 51.2822 48.3931 50.8728L47.3361 49.4677C47.1436 49.2111 47.1685 48.8523 47.3954 48.6257L49.262 46.7614C49.4888 46.5348 49.8481 46.5091 50.105 46.7022L51.511 47.758C51.9209 47.5417 52.3497 47.364 52.7931 47.2275L53.0406 45.4877C53.0862 45.1701 53.3577 44.9341 53.6792 44.9341H56.3192C56.6406 44.9341 56.9121 45.1701 56.9577 45.4877L57.2052 47.2275C57.6486 47.364 58.0774 47.5417 58.4874 47.758L59.8933 46.7022C60.1494 46.51 60.5095 46.5348 60.7363 46.7614L62.6029 48.6257C62.8298 48.8523 62.8556 49.2111 62.6622 49.4677L61.6052 50.8719C61.8217 51.2814 61.9996 51.7097 62.1363 52.1525L63.8782 52.3997C64.1962 52.4444 64.4325 52.7165 64.4325 53.0375V55.6742C64.4325 55.9944 64.1962 56.2665 63.8782 56.312L62.1371 56.5592C62.0005 57.002 61.8226 57.4303 61.606 57.8398L62.6631 59.2448C62.8556 59.5015 62.8306 59.8602 62.6038 60.0868L60.7372 61.9511C60.5103 62.1777 60.1511 62.2035 59.8942 62.0103L58.4882 60.9546C58.0783 61.1709 57.6495 61.3486 57.206 61.485L56.9585 63.224C56.913 63.5416 56.6414 63.7776 56.32 63.7776V63.7793ZM54.2395 62.4919H55.7606L55.9883 60.8885C56.0252 60.6276 56.2177 60.4164 56.4738 60.3538C57.084 60.2044 57.6658 59.9641 58.2029 59.6388C58.4281 59.5023 58.7142 59.5161 58.9248 59.674L60.2216 60.6473L61.2967 59.5736L60.3221 58.2784C60.164 58.0681 60.1494 57.7823 60.2869 57.5574C60.6126 57.0209 60.8541 56.4398 61.0027 55.8304C61.0655 55.5747 61.2777 55.3833 61.5381 55.3463L63.1435 55.1189V53.5997L61.5381 53.3722C61.2769 53.3353 61.0655 53.143 61.0027 52.8873C60.8532 52.2779 60.6126 51.6968 60.2869 51.1603C60.1502 50.9354 60.164 50.6496 60.3221 50.4393L61.2967 49.1441L60.2216 48.0704L58.9248 49.0437C58.7142 49.2016 58.4281 49.2162 58.2029 49.0789C57.6658 48.7536 57.084 48.5124 56.4738 48.3639C56.2177 48.3013 56.0261 48.0893 55.9883 47.8292L55.7606 46.2259H54.2395L54.0117 47.8292C53.9748 48.0901 53.7823 48.3013 53.527 48.3639C52.9169 48.5133 52.3351 48.7536 51.798 49.0789C51.5728 49.2154 51.2867 49.2016 51.0761 49.0437L49.7793 48.0704L48.7042 49.1441L49.6779 50.4393C49.836 50.6496 49.8506 50.9354 49.714 51.1603C49.3883 51.6968 49.1468 52.2779 48.9981 52.8873C48.9354 53.143 48.7231 53.3344 48.4627 53.3714L46.8574 53.5988V55.118L48.4627 55.3455C48.724 55.3824 48.9354 55.5747 48.9981 55.8296C49.1477 56.439 49.3883 57.0201 49.714 57.5565C49.8506 57.7814 49.8369 58.0672 49.6779 58.2775L48.7042 59.5727L49.7793 60.6465L51.0761 59.6731C51.2867 59.5152 51.5728 59.5006 51.798 59.6379C52.3351 59.9632 52.9169 60.2044 53.527 60.3529C53.7831 60.4156 53.9748 60.6276 54.0117 60.8877L54.2395 62.491V62.4919ZM55 58.5307C52.6969 58.5307 50.8226 56.6596 50.8226 54.3584C50.8226 52.0573 52.696 50.1861 55 50.1861C57.304 50.1861 59.1774 52.0573 59.1774 54.3584C59.1774 56.6596 57.304 58.5307 55 58.5307ZM55 51.4745C53.4076 51.4745 52.1117 52.7688 52.1117 54.3593C52.1117 55.9497 53.4076 57.2441 55 57.2441C56.5924 57.2441 57.8884 55.9497 57.8884 54.3593C57.8884 52.7688 56.5924 51.4745 55 51.4745Z" fill="white"/>
<path d="M55 38.0632C54.6442 38.0632 54.3555 37.7748 54.3555 37.4195V33.6437C54.3555 33.2884 54.6442 33 55 33C55.3558 33 55.6445 33.2884 55.6445 33.6437V37.4195C55.6445 37.7748 55.3558 38.0632 55 38.0632Z" fill="white"/>
<path d="M74.2921 53.5559H70.5117C70.1559 53.5559 69.8672 53.2675 69.8672 52.9122C69.8672 52.5568 70.1559 52.2684 70.5117 52.2684H74.2921C74.6479 52.2684 74.9366 52.5568 74.9366 52.9122C74.9366 53.2675 74.6479 53.5559 74.2921 53.5559Z" fill="white"/>
<path d="M39.4883 53.5559H35.7079C35.3521 53.5559 35.0634 53.2675 35.0634 52.9122C35.0634 52.5568 35.3521 52.2684 35.7079 52.2684H39.4883C39.8441 52.2684 40.1328 52.5568 40.1328 52.9122C40.1328 53.2675 39.8441 53.5559 39.4883 53.5559Z" fill="white"/>
<path d="M44.0318 42.6003C43.8668 42.6003 43.7018 42.5377 43.5763 42.4115L40.9037 39.7421C40.6519 39.4906 40.6519 39.0829 40.9037 38.8314C41.1555 38.58 41.5637 38.58 41.8155 38.8314L44.4881 41.5008C44.7399 41.7523 44.7399 42.16 44.4881 42.4115C44.3627 42.5368 44.1977 42.6003 44.0327 42.6003H44.0318Z" fill="white"/>
<path d="M40.5573 47.9047C40.4791 47.9047 40.4001 47.8902 40.3227 47.8601L39.0165 47.3486C38.6848 47.2189 38.5215 46.8456 38.6512 46.5143C38.781 46.183 39.1548 46.0199 39.4866 46.1495L40.7928 46.661C41.1245 46.7906 41.2878 47.164 41.158 47.4953C41.0584 47.7494 40.8152 47.9047 40.5573 47.9047Z" fill="white"/>
<path d="M49.3419 39.131C49.084 39.131 48.8408 38.9756 48.7412 38.7216L48.2144 37.3783C48.0846 37.047 48.2479 36.6736 48.5796 36.544C48.9113 36.4144 49.2851 36.5775 49.4149 36.9088L49.9417 38.2521C50.0715 38.5834 49.9082 38.9567 49.5765 39.0864C49.4991 39.1164 49.4201 39.131 49.3419 39.131Z" fill="white"/>
<path d="M60.6581 39.131C60.5799 39.131 60.5009 39.1164 60.4235 39.0864C60.0918 38.9567 59.9285 38.5834 60.0583 38.2521L60.5851 36.9088C60.7149 36.5775 61.0887 36.4144 61.4204 36.544C61.7521 36.6736 61.9154 37.047 61.7856 37.3783L61.2588 38.7216C61.1591 38.9756 60.9159 39.131 60.6581 39.131Z" fill="white"/>
<path d="M65.9682 42.6003C65.8032 42.6003 65.6382 42.5377 65.5127 42.4115C65.2609 42.16 65.2609 41.7523 65.5127 41.5008L68.1854 38.8314C68.4372 38.58 68.8454 38.58 69.0972 38.8314C69.349 39.0829 69.349 39.4906 69.0972 39.7421L66.4245 42.4115C66.299 42.5368 66.134 42.6003 65.969 42.6003H65.9682Z" fill="white"/>
<path d="M69.4426 47.9047C69.1848 47.9047 68.9416 47.7494 68.8419 47.4953C68.7122 47.164 68.8754 46.7906 69.2072 46.661L70.5134 46.1495C70.8451 46.0199 71.2189 46.183 71.3487 46.5143C71.4785 46.8456 71.3152 47.2189 70.9835 47.3486L69.6772 47.8601C69.5999 47.8902 69.5208 47.9047 69.4426 47.9047Z" fill="white"/>
<path d="M55.4168 68.167H49.201C48.8452 68.167 48.5564 67.8786 48.5564 67.5233C48.5564 66.3998 48.0082 65.3457 47.0903 64.7029C43.4036 62.1228 41.2028 57.9015 41.2028 53.4108C41.2028 49.6686 42.7024 46.158 45.4257 43.5256C45.6818 43.2784 46.0892 43.2852 46.3375 43.5402C46.585 43.7959 46.5781 44.2028 46.3229 44.45C43.8522 46.8378 42.4918 50.0196 42.4918 53.41C42.4918 57.481 44.4873 61.3074 47.8303 63.6471C48.9148 64.4067 49.6238 65.5835 49.8017 66.8787H55.4168C55.7726 66.8787 56.0614 67.1671 56.0614 67.5224C56.0614 67.8778 55.7726 68.1662 55.4168 68.1662V68.167Z" fill="white"/>
<path d="M60.7999 68.167H57.9949C57.6391 68.167 57.3504 67.8786 57.3504 67.5233C57.3504 67.1679 57.6391 66.8795 57.9949 66.8795H60.2001C60.3805 65.5861 61.0981 64.4033 62.1955 63.6308C65.523 61.2902 67.509 57.4689 67.509 53.4108C67.509 50.0925 66.22 46.9674 63.8799 44.6113C61.5415 42.2569 58.4254 40.9454 55.1065 40.9171C55.0722 40.9171 55.0369 40.9171 55.0026 40.9171C52.6049 40.9171 50.2708 41.6089 48.2453 42.9213C47.9471 43.1144 47.5475 43.0294 47.3541 42.7316C47.1608 42.4329 47.2458 42.0346 47.544 41.8415C49.8111 40.3729 52.4322 39.6065 55.1168 39.6305C58.7778 39.6614 62.2144 41.1077 64.7943 43.7049C67.3758 46.3031 68.7972 49.7501 68.7972 53.4108C68.7972 57.8878 66.6067 62.1013 62.9372 64.6831C62.0022 65.3414 61.4436 66.4032 61.4436 67.5233C61.4436 67.8786 61.1548 68.167 60.799 68.167H60.7999Z" fill="white"/>
</g>
<defs>
<clipPath id="clip0_407_2">
<rect width="44" height="44" fill="white" transform="translate(33 33)"/>
</clipPath>
</defs>
</svg>
