<svg width="18" height="18" viewBox="0 0 18 18" fill="none" xmlns="http://www.w3.org/2000/svg">
<path d="M16 9C16 7.05 15.3207 5.39567 13.962 4.037C12.6033 2.67833 10.9493 1.99933 9 2V0C10.25 0 11.421 0.237667 12.513 0.713C13.605 1.18833 14.555 1.82967 15.363 2.637C16.171 3.44567 16.8127 4.39567 17.288 5.487C17.7633 6.57833 18.0007 7.74933 18 9H16ZM12 9C12 8.16667 11.7083 7.45833 11.125 6.875C10.5417 6.29167 9.83333 6 9 6V4C10.3833 4 11.5627 4.48767 12.538 5.463C13.5133 6.43833 14.0007 7.61733 14 9H12ZM16.95 18C14.8 18 12.704 17.525 10.662 16.575C8.62 15.625 6.81167 14.3583 5.237 12.775C3.66233 11.1917 2.39567 9.379 1.437 7.337C0.478334 5.295 -0.000665972 3.19933 6.94927e-07 1.05V0.525C6.94927e-07 0.341667 0.0166673 0.166667 0.0500006 0H5.9L6.825 5.025L3.975 7.9C4.675 9.1 5.55433 10.225 6.613 11.275C7.67167 12.325 8.834 13.2333 10.1 14L13 11.1L18 12.1V17.95C17.8333 17.9667 17.6583 17.9793 17.475 17.988C17.2917 17.9967 17.1167 18.0007 16.95 18ZM3.025 6L4.675 4.35L4.25 2H2.025C2.10833 2.68333 2.225 3.35833 2.375 4.025C2.525 4.69167 2.74167 5.35 3.025 6ZM11.975 14.95C12.625 15.2333 13.2877 15.4583 13.963 15.625C14.6383 15.7917 15.3173 15.9 16 15.95V13.75L13.65 13.275L11.975 14.95Z" fill="#28275E"/>
</svg>
